{
    "asset": {
        "version": "2.0",
        "generator": "Open Asset Import Library (assimp v5.4.0)"
    },
    "extensionsUsed": [
        "KHR_materials_volume",
        "FB_ngon_encoding"
    ],
    "accessors": [
        {
            "bufferView": 0,
            "byteOffset": 0,
            "componentType": 5126,
            "count": 559,
            "type": "VEC3",
            "max": [
                0.9999997019767761,
                1.0,
                0.9999993443489075
            ],
            "min": [
                -0.9999990463256836,
                -1.0,
                -1.0
            ]
        },
        {
            "bufferView": 1,
            "byteOffset": 0,
            "componentType": 5126,
            "count": 559,
            "type": "VEC3",
            "max": [
                1.0,
                1.0,
                1.0
            ],
            "min": [
                -1.0,
                -1.0,
                -1.0
            ]
        },
        {
            "bufferView": 2,
            "byteOffset": 0,
            "componentType": 5126,
            "count": 559,
            "type": "VEC2",
            "max": [
                1.0,
                1.0
            ],
            "min": [
                0.0,
                0.0
            ]
        },
        {
            "bufferView": 3,
            "byteOffset": 0,
            "componentType": 5125,
            "count": 2880,
            "type": "SCALAR",
            "max": [
                558
            ],
            "min": [
                0
            ]
        }
    ],
    "buffers": [
        {
            "byteLength": 29408,
            "uri": "venus_0.bin"
        }
    ],
    "bufferViews": [
        {
            "buffer": 0,
            "byteOffset": 0,
            "byteLength": 6708,
            "target": 34962
        },
        {
            "buffer": 0,
            "byteOffset": 6708,
            "byteLength": 6708,
            "target": 34962
        },
        {
            "buffer": 0,
            "byteOffset": 13416,
            "byteLength": 4472,
            "target": 34962
        },
        {
            "buffer": 0,
            "byteOffset": 17888,
            "byteLength": 11520,
            "target": 34963
        }
    ],
    "images": [
        {
            "uri": "textures/image_0.png"
        }
    ],
    "materials": [
        {
            "name": "Material.001",
            "pbrMetallicRoughness": {
                "baseColorTexture": {
                    "index": 0
                },
                "metallicFactor": 0.0,
                "roughnessFactor": 0.5
            },
            "doubleSided": true
        }
    ],
    "meshes": [
        {
            "name": "meshes[0]",
            "primitives": [
                {
                    "mode": 4,
                    "material": 0,
                    "indices": 3,
                    "attributes": {
                        "POSITION": 0,
                        "NORMAL": 1,
                        "TEXCOORD_0": 2
                    }
                }
            ]
        }
    ],
    "nodes": [
        {
            "name": "venus",
            "children": [
                1
            ]
        },
        {
            "name": "Sphere",
            "matrix": [
                1.5846500396728516,
                0.0,
                0.0,
                0.0,
                0.0,
                1.584648609161377,
                0.0,
                0.0,
                0.0,
                0.0,
                1.584648609161377,
                0.0,
                0.0,
                0.0,
                0.0,
                1.0
            ],
            "mesh": 0,
            "extras": {
                "name": "Sphere"
            }
        }
    ],
    "samplers": [
        {
            "magFilter": 9729,
            "minFilter": 9987
        }
    ],
    "scenes": [
        {
            "nodes": [
                0
            ]
        }
    ],
    "textures": [
        {
            "source": 0,
            "sampler": 0
        }
    ],
    "scene": 0
}